<svg width="33" height="25" viewBox="0 0 33 25" fill="none" xmlns="http://www.w3.org/2000/svg">
<path d="M16.2257 24.0369L0.225708 7.44434C2.33682 5.20895 4.77571 3.49784 7.54238 2.31101C10.309 1.12418 13.2035 0.530762 16.2257 0.530762C19.2479 0.530762 22.1424 1.12418 24.909 2.31101C27.6757 3.49784 30.1146 5.20895 32.2257 7.44434L16.2257 24.0369ZM16.2257 20.0962L28.359 7.51348C26.6035 6.13076 24.6924 5.0822 22.6257 4.3678C20.559 3.6534 18.4257 3.29619 16.2257 3.29619C14.0257 3.29619 11.8924 3.6534 9.82571 4.3678C7.75904 5.0822 5.84793 6.13076 4.09237 7.51348L16.2257 20.0962ZM14.8924 15.7406V8.82706H17.559V15.7406H14.8924ZM16.2257 7.44434C15.8479 7.44434 15.5313 7.31183 15.2757 7.04681C15.0202 6.78179 14.8924 6.4534 14.8924 6.06163C14.8924 5.66986 15.0202 5.34146 15.2757 5.07644C15.5313 4.81142 15.8479 4.67891 16.2257 4.67891C16.6035 4.67891 16.9202 4.81142 17.1757 5.07644C17.4313 5.34146 17.559 5.66986 17.559 6.06163C17.559 6.4534 17.4313 6.78179 17.1757 7.04681C16.9202 7.31183 16.6035 7.44434 16.2257 7.44434Z" fill="white"/>
</svg>
