<svg width="32" height="34" viewBox="0 0 32 34" fill="none" xmlns="http://www.w3.org/2000/svg">
<mask id="mask0_109_3809" style="mask-type:alpha" maskUnits="userSpaceOnUse" x="0" y="0" width="32" height="34">
<rect width="32" height="33.1852" fill="#D9D9D9"/>
</mask>
<g mask="url(#mask0_109_3809)">
<path d="M16 30.4198C14.1555 30.4198 12.4222 30.0566 10.8 29.3302C9.17774 28.6047 7.76663 27.6198 6.56663 26.3753C5.36663 25.1309 4.41685 23.6675 3.71729 21.9852C3.01685 20.3029 2.66663 18.5054 2.66663 16.5926C2.66663 14.6799 3.01685 12.8823 3.71729 11.2C4.41685 9.51773 5.36663 8.05435 6.56663 6.80991C7.76663 5.56547 9.17774 4.58005 10.8 3.85366C12.4222 3.1282 14.1555 2.76547 16 2.76547C17.4444 2.76547 18.8111 2.9844 20.1 3.42226C21.3888 3.86012 22.5777 4.47082 23.6666 5.25435L21.7333 7.29386C20.8888 6.74077 19.9888 6.30844 19.0333 5.99687C18.0777 5.68622 17.0666 5.5309 16 5.5309C13.0444 5.5309 10.528 6.60803 8.45063 8.7623C6.3724 10.9175 5.33329 13.5276 5.33329 16.5926C5.33329 19.6576 6.3724 22.2678 8.45063 24.4229C10.528 26.5772 13.0444 27.6544 16 27.6544C18.9555 27.6544 21.4724 26.5772 23.5506 24.4229C25.628 22.2678 26.6666 19.6576 26.6666 16.5926C26.6666 16.1778 26.6444 15.763 26.6 15.3482C26.5555 14.9334 26.4888 14.5301 26.4 14.1383L28.5666 11.8914C28.8111 12.6288 29 13.3893 29.1333 14.1729C29.2666 14.9564 29.3333 15.763 29.3333 16.5926C29.3333 18.5054 28.9831 20.3029 28.2826 21.9852C27.5831 23.6675 26.6333 25.1309 25.4333 26.3753C24.2333 27.6198 22.8222 28.6047 21.2 29.3302C19.5777 30.0566 17.8444 30.4198 16 30.4198ZM14.1333 22.9531L8.46663 17.0766L10.3333 15.1408L14.1333 19.0815L27.4666 5.21979L29.3333 7.15559L14.1333 22.9531Z" fill="white"/>
</g>
<path d="M14.0667 23.1259L8.40002 17.2494L10.2667 15.3136L14.0667 19.2543L27.4 5.39259L29.2667 7.32839L14.0667 23.1259Z" fill="white"/>
</svg>
