<svg width="24" height="24" viewBox="0 0 28 28" fill="none" xmlns="http://www.w3.org/2000/svg">
<path d="M1.80909 19.1605L1.80908 19.1604C1.11427 17.5513 0.766601 15.8315 0.766601 14.0001C0.766601 12.1687 1.11427 10.4489 1.80908 8.83972L1.80909 8.83968C2.50385 7.22859 3.44662 5.82815 4.63731 4.63746C5.828 3.44677 7.22844 2.50355 8.83953 1.80791C10.4487 1.11398 12.1685 0.766748 13.9999 0.766748C15.4345 0.766748 16.7906 0.97639 18.0688 1.39511C19.3102 1.80177 20.4577 2.36396 21.5117 3.08164L19.7183 4.90601C18.8864 4.38853 18.0013 3.98228 17.0633 3.68735L17.0632 3.68733C16.0973 3.38454 15.0761 3.23341 13.9999 3.23341C11.018 3.23341 8.4761 4.28249 6.37989 6.3787C4.2828 8.4758 3.23327 11.0182 3.23327 14.0001C3.23327 16.982 4.2828 19.5244 6.37989 21.6215C8.4761 23.7177 11.018 24.7667 13.9999 24.7667C16.9818 24.7667 19.5242 23.7177 21.6213 21.6215L21.6213 21.6214C23.7175 19.5243 24.7666 16.982 24.7666 14.0001C24.7666 13.5964 24.7442 13.1927 24.6993 12.789C24.6566 12.4043 24.5934 12.0296 24.5099 11.6649L26.5234 9.6514C26.7414 10.3098 26.9118 10.9874 27.0348 11.6841C27.1671 12.4337 27.2333 13.2057 27.2333 14.0001C27.2333 15.8315 26.8856 17.5513 26.1908 19.1604L26.1908 19.1605C25.496 20.7716 24.5532 22.172 23.3626 23.3627C22.1719 24.5534 20.7714 25.4962 19.1603 26.1909L19.1603 26.1909C17.5511 26.8857 15.8314 27.2334 13.9999 27.2334C12.1685 27.2334 10.4487 26.8857 8.83958 26.1909L8.83953 26.1909C7.22844 25.4962 5.828 24.5534 4.63731 23.3627C3.44662 22.172 2.50385 20.7716 1.80909 19.1605ZM12.2041 16.4707L25.4667 3.17492L27.1919 4.90016L12.1332 19.9919L6.60802 14.4667L8.33327 12.7415L12.0626 16.4708L12.1334 16.5416L12.2041 16.4707Z" fill="#217CF5" stroke="#1F243D" stroke-width="0.2"/>
</svg>
